<svg xmlns="http://www.w3.org/2000/svg" viewBox="0 0 125.13 73.61"><defs><style>.cls-1{fill:#e5e5e5;fill-rule:evenodd;}</style></defs><g id="Layer_2" data-name="Layer 2"><g id="Слой_1" data-name="Слой 1"><path class="cls-1" d="M0,.49C9.56,8,12.13,7.07,23.28,19.08,35,31.71,39.64,45.05,55.15,56.86c-6.41-1.42-8.45-5.13-12.35-7.44C40,58.25,31,70,25.18,72.67c5.48,3.87,28.24-5.08,34.66-9.37,6.89-4.6,14-1.82,22-7.57,14.79-10.63,6.44-21.06,22.3-22.39-7.59-7-9.88-6-12.6-8.15C101.42,12,113.88,8.13,125.13.55,105.74-1,84.8,3.14,73.58,13.44c-13.31,12.22-3.48,19.71-.33,20.28,7.46,1.35,12.09-11.65,24.23-2.48-7.56,6.7-4.52,4.41-8.57,12.69C78.43,65.3,68.1,35.06,60.43,24.35,47.17,5.85,23.85-2.14,0,.49Z"/></g></g></svg>