<svg xmlns="http://www.w3.org/2000/svg" xmlns:xlink="http://www.w3.org/1999/xlink" viewBox="0 0 177.3 99.76"><defs><style>.cls-1{fill-rule:evenodd;fill:url(#GradientFill_1);}</style><linearGradient id="GradientFill_1" x1="82.44" y1="58" x2="106.46" y2="26.96" gradientUnits="userSpaceOnUse"><stop offset="0" stop-color="#003873"/><stop offset="1" stop-color="#0f549d"/></linearGradient></defs><g id="Layer_2" data-name="Layer 2"><g id="Слой_1" data-name="Слой 1"><path class="cls-1" d="M109.49,75.5V43.21h-6.87V75.5Zm-84.28,24V82.38H36.74v2H27.48v5.32h8v2h-8v7.76ZM0,.49C23.85-2.14,47.17,5.85,60.43,24.35c7.67,10.71,18,40.95,28.48,19.58,4-8.28,1-6,8.57-12.69-12.14-9.17-16.77,3.83-24.23,2.48-3.15-.57-13-8.06.33-20.28C84.8,3.14,105.74-1,125.13.55,113.88,8.13,101.42,12,91.5,25.19c2.72,2.2,5,1.19,12.6,8.15C88.24,34.67,96.59,45.1,81.8,55.73c-8,5.75-15.07,3-22,7.57-6.42,4.29-29.18,13.24-34.66,9.37C31,70,40,58.25,42.8,49.42c3.9,2.31,5.94,6,12.35,7.44C39.64,45.05,35,31.71,23.28,19.08,12.13,7.07,9.56,8,0,.49ZM39,91.15a9.27,9.27,0,0,1,2.28-6.65,7.76,7.76,0,0,1,5.9-2.4,8.14,8.14,0,0,1,4.27,1.13,7.37,7.37,0,0,1,2.9,3.15,10.23,10.23,0,0,1,1,4.57,9.93,9.93,0,0,1-1.06,4.65,7.13,7.13,0,0,1-3,3.1,8.43,8.43,0,0,1-4.15,1.06,8.09,8.09,0,0,1-4.32-1.17A7.51,7.51,0,0,1,40,95.41a9.63,9.63,0,0,1-1-4.26Zm2.34,0A6.85,6.85,0,0,0,43,96.05a5.81,5.81,0,0,0,8.37,0A7.21,7.21,0,0,0,53,91a8.75,8.75,0,0,0-.71-3.64,5.44,5.44,0,0,0-2.06-2.4,5.62,5.62,0,0,0-3-.86,5.76,5.76,0,0,0-4.12,1.65c-1.16,1.1-1.73,2.93-1.73,5.49Zm28.11-8.81h2.26v9.87a11.64,11.64,0,0,1-.58,4.09A5.05,5.05,0,0,1,69,98.81a7.44,7.44,0,0,1-4,1,8.17,8.17,0,0,1-3.92-.83,4.72,4.72,0,0,1-2.18-2.4,11.49,11.49,0,0,1-.65-4.28V82.38h2.27v9.87A9.78,9.78,0,0,0,61,95.53a3.18,3.18,0,0,0,1.42,1.63,4.91,4.91,0,0,0,2.45.57,4.68,4.68,0,0,0,3.54-1.13c.71-.76,1.06-2.21,1.06-4.35V82.38Zm6,17.09V82.38h2.33l9,13.41V82.38H88.9V99.47H86.58l-9-13.41V99.47Zm17.26,0V82.38h5.89a14.53,14.53,0,0,1,3,.24,5.86,5.86,0,0,1,2.51,1.23,6.86,6.86,0,0,1,2,2.92,11.37,11.37,0,0,1,.67,4.06,12,12,0,0,1-.45,3.45,8,8,0,0,1-1.17,2.49,5.88,5.88,0,0,1-1.56,1.55,6.38,6.38,0,0,1-2,.86,12,12,0,0,1-2.75.29Zm2.27-2h3.64a8.79,8.79,0,0,0,2.65-.32,3.8,3.8,0,0,0,1.54-.89A5.32,5.32,0,0,0,104,94.1a10.61,10.61,0,0,0,.45-3.3,8.06,8.06,0,0,0-.87-4.13,4.41,4.41,0,0,0-2.14-1.93,8.65,8.65,0,0,0-2.92-.35H95V97.47Zm13.1,2,6.55-17.09h2.49l7,17.09h-2.57l-2-5.18h-7.19l-1.86,5.18Zm4.91-7h5.83L117,87.72c-.53-1.44-.94-2.63-1.22-3.57a25.62,25.62,0,0,1-.94,3.29l-1.88,5Zm15.45,7h2.27V84.39h5.63v-2H122.8v2h5.63V99.47Zm10.62,0V82.38h2.27V99.47Zm5.56-8.32a9.27,9.27,0,0,1,2.28-6.65,7.76,7.76,0,0,1,5.9-2.4,8.14,8.14,0,0,1,4.27,1.13,7.43,7.43,0,0,1,2.9,3.15A10.23,10.23,0,0,1,161,91a10,10,0,0,1-1,4.65,7.13,7.13,0,0,1-3,3.1,8.43,8.43,0,0,1-4.15,1.06,8.09,8.09,0,0,1-4.32-1.17,7.51,7.51,0,0,1-2.88-3.18,9.63,9.63,0,0,1-1-4.26Zm2.33,0a6.85,6.85,0,0,0,1.66,4.86A5.81,5.81,0,0,0,157,96,7.21,7.21,0,0,0,158.62,91a8.75,8.75,0,0,0-.71-3.64,5.44,5.44,0,0,0-2.06-2.4,5.62,5.62,0,0,0-3-.86,5.79,5.79,0,0,0-4.13,1.65q-1.72,1.65-1.73,5.49Zm16.9,8.28V82.38h2.32l9,13.41V82.38h2.17V99.47H175l-9-13.41V99.47Zm-44.67-24V43.21h-6.88V75.5Zm14.27.59c8.72,0,12.93-4.46,12.93-10.37,0-12-18.55-8.62-18.55-13.75,0-1.94,1.65-3.24,4.6-3.24a13.88,13.88,0,0,1,9.4,3.53l3.82-5c-3.19-3-7.45-4.51-12.59-4.51-7.6,0-12.25,4.46-12.25,9.83,0,12.16,18.6,8.23,18.6,14,0,1.84-1.84,3.58-5.62,3.58a14.14,14.14,0,0,1-10.27-4.36L119.79,71c3,3,7.45,5.14,13.65,5.14Zm26.72-.59c10.12,0,17.14-6.39,17.14-16.12s-7-16.17-17.14-16.17H147.42V75.5Zm0-6H154.3V49.26h5.86c6.63,0,10.12,4.41,10.12,10.12C170.28,64.85,166.55,69.45,160.16,69.45Z"/></g></g></svg>